<svg width="88" height="17" viewBox="0 0 88 17" fill="none" xmlns="http://www.w3.org/2000/svg">
<path d="M15 6.65377L10.074 6.06218L7.99737 1.5L5.92077 6.06218L1 6.65377L4.638 10.0701L3.67593 15L7.99737 12.543L12.3241 15L11.362 10.0701L15 6.65377Z" fill="#F2AE40"/>
<path d="M33 6.65377L28.074 6.06218L25.9974 1.5L23.9208 6.06218L19 6.65377L22.638 10.0701L21.6759 15L25.9974 12.543L30.3241 15L29.362 10.0701L33 6.65377Z" fill="#F2AE40"/>
<path d="M51 6.65377L46.074 6.06218L43.9974 1.5L41.9208 6.06218L37 6.65377L40.638 10.0701L39.6759 15L43.9974 12.543L48.3241 15L47.362 10.0701L51 6.65377Z" fill="#F2AE40"/>
<path d="M69 6.65377L64.074 6.06218L61.9974 1.5L59.9208 6.06218L55 6.65377L58.638 10.0701L57.6759 15L61.9974 12.543L66.3241 15L65.362 10.0701L69 6.65377Z" fill="#F2AE40"/>
<path d="M87 6.6558L82.074 6.06398L79.9974 1.5L77.9208 6.06398L73 6.6558L76.638 10.0681L75.6707 15L79.9974 12.5421L84.3241 15L83.3567 10.0681L86.9947 6.6558H87ZM80.0026 11.3264V4.04858L81.3695 7.05569L84.6132 7.44491L82.2159 9.69491L82.852 12.9419L80.0026 11.3264Z" fill="#F2AE40"/>
</svg>
