<svg width="18" height="18" viewBox="0 0 18 18" fill="none" xmlns="http://www.w3.org/2000/svg">
<mask id="mask0_301_3095" style="mask-type:luminance" maskUnits="userSpaceOnUse" x="0" y="9" width="18" height="9">
<path d="M0 9.44446H17.9117V18H0V9.44446Z" fill="white"/>
</mask>
<g mask="url(#mask0_301_3095)">
<path d="M17.9007 9.45139C17.9007 14.306 14.0207 17.9978 8.94846 17.9978C3.88661 17.9978 0.0166016 14.3066 0.0166016 9.45139H4.39204C4.40788 11.9453 6.38249 13.8611 8.95844 13.8611C11.5344 13.8611 13.5094 11.9451 13.5248 9.45139H17.9007Z" fill="white"/>
</g>
<mask id="mask1_301_3095" style="mask-type:luminance" maskUnits="userSpaceOnUse" x="0" y="0" width="18" height="9">
<path d="M0 0H17.9117V8.61111H0V0Z" fill="white"/>
</mask>
<g mask="url(#mask1_301_3095)">
<path d="M13.5253 8.60634C13.5259 8.59635 13.5259 8.58594 13.5259 8.57617C13.5259 6.05751 11.5452 4.11632 8.95888 4.11632C6.3725 4.11632 4.39138 6.05816 4.39138 8.57661C4.39138 8.58659 4.39138 8.597 4.39204 8.60699H0.0166016C0.0166016 3.71159 3.89659 0 8.95844 0C14.0203 0 17.9001 3.71159 17.9001 8.60634H13.5253Z" fill="white"/>
</g>
</svg>
